<?xml version="1.0" encoding="utf-8"?>
<!-- Generator: Adobe Illustrator 23.0.1, SVG Export Plug-In . SVG Version: 6.00 Build 0)  -->
<svg version="1.1" id="Layer_1" xmlns="http://www.w3.org/2000/svg" xmlns:xlink="http://www.w3.org/1999/xlink" x="0px" y="0px"
	 viewBox="0 0 142.03 137.68" style="enable-background:new 0 0 142.03 137.68;" xml:space="preserve">
<style type="text/css">
	.st0{fill:#B3268D;}
	.st1{fill:none;stroke:#FCDE65;stroke-width:9;stroke-miterlimit:10;}
</style>
<path class="st0" d="M21.74,62.07c3.68,0,7.29,0,10.94,0c0,9.11,0,18.19,0,27.31c25.56,0,51.08,0,76.65,0c0-9.09,0-18.19,0-27.31
	c3.67,0,7.27,0,10.96,0c0,0.19,0,0.38,0,0.57c0,8.87,0,17.74,0,26.61c0,5.52-3.7,9.96-9.13,10.95c-0.64,0.12-1.31,0.15-1.96,0.15
	c-25.46,0.01-50.91,0.01-76.37,0c-5.51,0-9.97-3.74-10.94-9.15c-0.1-0.57-0.14-1.16-0.15-1.74c-0.01-8.98-0.01-17.96-0.01-26.94
	C21.74,62.39,21.74,62.25,21.74,62.07z"/>
<polyline class="st1" points="43.64,51.14 60.86,73.43 107.77,37.32 "/>
</svg>
