<?xml version="1.0" encoding="utf-8"?>
<!-- Generator: Adobe Illustrator 23.0.1, SVG Export Plug-In . SVG Version: 6.00 Build 0)  -->
<svg version="1.1" id="Layer_1" xmlns="http://www.w3.org/2000/svg" xmlns:xlink="http://www.w3.org/1999/xlink" x="0px" y="0px"
	 viewBox="0 0 204.58 218.01" style="enable-background:new 0 0 204.58 218.01;" xml:space="preserve">
<style type="text/css">
	.st0{fill:#B3268D;}
</style>
<path class="st0" d="M18.31,120.26c6.28,0,12.43,0,18.64,0c0,15.52,0,31,0,46.55c43.56,0,87.06,0,130.65,0c0-15.5,0-31,0-46.54
	c6.25,0,12.39,0,18.68,0c0,0.32,0,0.65,0,0.98c0,15.12,0.01,30.23,0,45.35c-0.01,9.42-6.3,16.97-15.56,18.67
	c-1.09,0.2-2.23,0.26-3.34,0.26c-43.39,0.01-86.78,0.02-130.17,0.01c-9.39,0-17-6.38-18.64-15.59c-0.17-0.97-0.25-1.98-0.25-2.97
	c-0.02-15.3-0.01-30.61-0.01-45.91C18.31,120.82,18.31,120.58,18.31,120.26z"/>
<path class="st0" d="M55.63,92.22c12.55,0,24.87,0,37.28,0c0-24.87,0-49.7,0-74.59c6.27,0,12.44,0,18.67,0c0,24.83,0,49.64,0,74.55
	c12.42,0,24.78,0,37.39,0c-15.63,18.76-31.11,37.33-46.69,56.03C86.75,129.57,71.26,110.98,55.63,92.22z"/>
</svg>
