<svg id="Layer_1" data-name="Layer 1" xmlns="http://www.w3.org/2000/svg" viewBox="0 0 286 286"><defs><style>.cls-1,.cls-2{fill:#f4eee8;}.cls-1{opacity:0;}</style></defs><title>facebook</title><rect class="cls-1" width="286" height="286"/><path class="cls-2" d="M171.12,86.31c-1,6-2,11.71-3,17.39-3.45-.41-6.58-1-9.72-1.11-6.63-.16-9.11,2.41-9.13,9v10.63h19.47c-.49,6.16-.94,11.84-1.41,17.86h-18V200H126.72V140.05H114.59V122.36c3.21,0,6.26-.1,9.3,0,2.13.1,2.72-.75,2.72-2.79,0-5.58-.13-11.19.39-16.73,1-10.61,7.89-18,18.43-18.59,7.88-.44,15.86.79,23.8,1.32A7.81,7.81,0,0,1,171.12,86.31Z" transform="translate(0.31 1.25)"/></svg>