<?xml version="1.0" encoding="utf-8"?>
<!-- Generator: Adobe Illustrator 23.0.1, SVG Export Plug-In . SVG Version: 6.00 Build 0)  -->
<svg version="1.1" id="Layer_1" xmlns="http://www.w3.org/2000/svg" xmlns:xlink="http://www.w3.org/1999/xlink" x="0px" y="0px"
	 viewBox="0 0 142.03 137.68" style="enable-background:new 0 0 142.03 137.68;" xml:space="preserve">
<style type="text/css">
	.st0{fill:#B3268D;}
</style>
<path class="st0" d="M71.06,115.22c-0.32-0.3-0.58-0.53-0.83-0.78C56.1,100.16,41.87,85.98,27.87,71.57
	c-8.01-8.25-10.33-18.28-6.76-29.17c3.55-10.85,11.34-17.56,22.61-19.44c10.61-1.77,19.58,1.8,26.67,9.94
	c0.17,0.2,0.35,0.41,0.84,0.98c0.19-0.38,0.28-0.75,0.5-1.01c7.9-8.93,17.78-12.37,29.28-9.33c11.47,3.03,18.59,10.81,20.92,22.49
	c1.92,9.66-0.64,18.31-7.52,25.36c-14.18,14.54-28.54,28.9-42.83,43.34C71.45,114.87,71.31,114.98,71.06,115.22z M71.04,109.26
	c0.32-0.29,0.56-0.49,0.78-0.71c13.2-13.31,26.45-26.58,39.56-39.97c6-6.13,8.06-13.67,6.48-22.06
	c-1.94-10.37-10.52-18.26-21.04-19.65c-10.23-1.36-20.38,4.13-25.04,13.55c-0.2,0.41-0.42,0.82-0.71,1.39
	c-0.26-0.54-0.44-0.88-0.61-1.23C65.58,30.51,54.3,24.81,43.52,27.19c-9.44,2.08-15.89,7.83-18.64,17.09
	c-2.75,9.23-0.65,17.63,6.12,24.55c12.95,13.24,26.05,26.35,39.08,39.5C70.36,108.61,70.65,108.88,71.04,109.26z"/>
</svg>
