<?xml version="1.0" encoding="utf-8"?>
<!-- Generator: Adobe Illustrator 23.0.1, SVG Export Plug-In . SVG Version: 6.00 Build 0)  -->
<svg version="1.1" id="Layer_1" xmlns="http://www.w3.org/2000/svg" xmlns:xlink="http://www.w3.org/1999/xlink" x="0px" y="0px"
	 viewBox="0 0 142.03 137.68" style="enable-background:new 0 0 142.03 137.68;" xml:space="preserve">
<style type="text/css">
	.st0{fill:#B3268D;}
</style>
<path class="st0" d="M121.93,46.04c-2.33-11.68-9.45-19.47-20.92-22.49c-11.49-3.03-21.37,0.41-29.28,9.33
	c-0.22,0.25-0.32,0.62-0.5,1.01c-0.49-0.58-0.66-0.78-0.84-0.98c-7.09-8.15-16.07-11.71-26.67-9.94
	c-11.28,1.88-19.06,8.59-22.61,19.44c-3.56,10.9-1.25,20.92,6.76,29.17c14,14.41,28.23,28.59,42.36,42.87
	c0.25,0.25,0.51,0.48,0.83,0.78c0.25-0.23,0.39-0.35,0.51-0.47c14.29-14.44,28.65-28.8,42.83-43.34
	C121.28,64.35,123.85,55.7,121.93,46.04z"/>
</svg>
