<?xml version="1.0" encoding="utf-8"?>
<!-- Generator: Adobe Illustrator 23.0.1, SVG Export Plug-In . SVG Version: 6.00 Build 0)  -->
<svg version="1.1" id="Layer_1" xmlns="http://www.w3.org/2000/svg" xmlns:xlink="http://www.w3.org/1999/xlink" x="0px" y="0px"
	 viewBox="0 0 204.58 218.01" style="enable-background:new 0 0 204.58 218.01;" xml:space="preserve">
<style type="text/css">
	.st0{fill:#B3268D;}
</style>
<path class="st0" d="M103.94,18.64c24.21,0,48.41-0.05,72.61,0.06c3.39,0.01,6.88,0.38,10.14,1.26c6.95,1.87,9.36,7.99,5.51,14.1
	c-1.95,3.1-4.48,5.89-7.03,8.55c-18.6,19.4-37.27,38.75-55.95,58.06c-1.24,1.28-1.74,2.56-1.73,4.34
	c0.02,29.48-0.01,58.97-0.09,88.45c0,1.82-0.28,3.71-0.81,5.45c-1.28,4.26-5.95,6.22-9.91,4.17c-1.56-0.81-3.08-1.86-4.31-3.11
	c-9.98-10.09-19.91-20.23-29.8-30.41c-4.53-4.66-5.92-10.53-5.93-16.81c-0.03-17.55-0.03-35.11,0.02-52.66
	c0-1.49-0.4-2.53-1.48-3.59C58.41,80.22,41.65,63.92,24.98,47.52c-2.87-2.82-5.49-5.94-7.86-9.2c-1.32-1.82-2.28-4.13-2.7-6.35
	c-0.94-4.9,1.58-8.88,6.45-10.84c4.55-1.83,9.37-1.96,14.16-1.97c22.97-0.05,45.94-0.02,68.91-0.02
	C103.94,18.98,103.94,18.81,103.94,18.64z M26.86,31.35c-0.11,0.36-0.23,0.71-0.34,1.07c2.16,2.36,4.21,4.83,6.49,7.06
	c17.52,17.09,35.08,34.14,52.67,51.15c1.86,1.8,2.71,3.72,2.7,6.33c-0.07,18.17-0.08,36.33-0.01,54.5
	c0.02,4.68,1.29,8.83,4.89,12.36c7.01,6.85,13.67,14.05,20.48,21.11c0.5,0.52,1.04,0.99,1.93,1.85c0-1.29,0-2.08,0-2.87
	c0-27.15,0.03-54.3-0.04-81.44c-0.01-3,0.83-5.31,2.96-7.51c19.51-20.14,38.93-40.36,58.38-60.56c0.98-1.02,1.92-2.07,2.88-3.11
	c-0.06-0.21-0.12-0.41-0.17-0.62C128.74,30.89,77.8,31.12,26.86,31.35z"/>
<path class="st0" d="M26.86,31.35c50.94-0.23,101.88-0.46,152.83-0.69c0.06,0.21,0.12,0.41,0.17,0.62c-0.96,1.04-1.9,2.09-2.88,3.11
	c-19.44,20.2-38.86,40.43-58.38,60.56c-2.13,2.2-2.97,4.51-2.96,7.51c0.07,27.15,0.04,54.3,0.04,81.44c0,0.79,0,1.58,0,2.87
	c-0.9-0.86-1.44-1.33-1.93-1.85c-6.81-7.05-13.47-14.26-20.48-21.11c-3.61-3.52-4.87-7.68-4.89-12.36
	c-0.08-18.17-0.07-36.33,0.01-54.5c0.01-2.61-0.84-4.54-2.7-6.33C68.09,73.62,50.53,56.57,33.01,39.48
	c-2.29-2.23-4.34-4.7-6.49-7.06C26.63,32.07,26.74,31.71,26.86,31.35z"/>
</svg>
