<?xml version="1.0" encoding="utf-8"?>
<!-- Generator: Adobe Illustrator 23.0.1, SVG Export Plug-In . SVG Version: 6.00 Build 0)  -->
<svg version="1.1" id="Layer_1" xmlns="http://www.w3.org/2000/svg" xmlns:xlink="http://www.w3.org/1999/xlink" x="0px" y="0px"
	 viewBox="0 0 142.03 137.68" style="enable-background:new 0 0 142.03 137.68;" xml:space="preserve">
<style type="text/css">
	.st0{fill:#B3268D;}
</style>
<path class="st0" d="M104.29,32.04c-1.31-0.35-2.72-0.5-4.09-0.51c-9.75-0.04-19.51-0.02-29.26-0.02c0,0.07,0,0.14,0,0.2
	c-9.26,0-18.51-0.01-27.77,0.01c-1.93,0-3.87,0.06-5.71,0.79c-1.96,0.79-2.98,2.39-2.6,4.37c0.17,0.89,0.56,1.82,1.09,2.56
	c0.95,1.31,2.01,2.57,3.17,3.71c6.72,6.61,13.47,13.18,20.23,19.74c0.44,0.42,0.6,0.85,0.6,1.45c-0.02,7.07-0.02,14.15-0.01,21.22
	c0,2.53,0.56,4.89,2.39,6.77c3.99,4.1,7.99,8.19,12.01,12.25c0.5,0.5,1.11,0.93,1.74,1.25c1.59,0.83,3.48,0.03,3.99-1.68
	c0.21-0.7,0.32-1.46,0.32-2.2c0.03-11.88,0.04-23.77,0.04-35.65c0-0.72,0.2-1.23,0.7-1.75c7.53-7.79,15.05-15.58,22.55-23.4
	c1.03-1.07,2.05-2.2,2.83-3.44C108.06,35.27,107.09,32.8,104.29,32.04z"/>
</svg>
