<svg id="Layer_1" data-name="Layer 1" xmlns="http://www.w3.org/2000/svg" viewBox="0 0 286 286"><defs><style>.cls-1,.cls-2{fill:#f4eee8;}.cls-1{opacity:0;}</style></defs><title>instagram</title><rect class="cls-1" width="286" height="286"/><path class="cls-2" d="M84.84,143.27q0-17.45,0-34.88c0-11.58,7.36-20.46,18.71-22.56a24.13,24.13,0,0,1,4.25-.34q34.77,0,69.52,0c11,0,19.76,6.71,22.32,17a23.17,23.17,0,0,1,.66,5.38q.06,35.4,0,70.81A22.22,22.22,0,0,1,178.12,201q-35.53.12-71.07,0a22.18,22.18,0,0,1-22.19-22.21C84.78,167,84.85,155.12,84.84,143.27Zm11.29-11.8c0,.48-.06.9-.06,1.32q0,22.69,0,45.39c0,6.86,4.71,11.56,11.57,11.56h69.9a13.08,13.08,0,0,0,2.58-.19c5.44-1.12,9-5.49,9-11.27q0-22.89,0-45.78a7.94,7.94,0,0,0-.11-1H172.06c4.6,14.59,1.77,27.19-10.33,36.69-10.12,8-21.77,9.26-33.11,3.21-16.24-8.66-20.53-22.67-15.63-39.95Zm46.41,32.11a20.31,20.31,0,1,0-20.29-20.28A20.38,20.38,0,0,0,142.54,163.58Zm24.94-45.28h19.38V98.93H167.48Z" transform="translate(0.42 -0.28)"/></svg>