<?xml version="1.0" encoding="utf-8"?>
<!-- Generator: Adobe Illustrator 23.0.1, SVG Export Plug-In . SVG Version: 6.00 Build 0)  -->
<svg version="1.1" id="Layer_1" xmlns="http://www.w3.org/2000/svg" xmlns:xlink="http://www.w3.org/1999/xlink" x="0px" y="0px"
	 viewBox="0 0 142.03 137.68" style="enable-background:new 0 0 142.03 137.68;" xml:space="preserve">
<style type="text/css">
	.st0{fill:#FCDE65;}
</style>
<path class="st0" d="M111.52,59.3c-2.68-2.22-5.75-3.5-9.32-3.46c-4.08,0.04-8.16,0.01-12.24,0.01c-0.61,0-1.21,0-1.85,0
	c0.03-0.49,0.03-0.72,0.07-0.94c0.06-0.4,0.15-0.79,0.22-1.18c0.93-5.78,0.89-11.46-1.98-16.78c-1.76-3.25-4.26-5.7-8.01-6.55
	c-3.98-0.9-7.12,1.57-7.04,5.59c0.09,4.84,0.04,9.56-2.22,14.09c-2.03,4.07-3.85,8.21-7.18,11.45c-0.42,0.41-0.88,0.76-1.43,1.23
	c-1-5.24-3.05-6.91-8.22-6.91c-5.98,0-11.95-0.02-17.93,0.01c-4.52,0.02-7.19,2.7-7.19,7.18c-0.01,12.41-0.01,24.83,0,37.24
	c0,4.51,2.66,7.18,7.16,7.19c6.21,0.01,12.41,0.01,18.62,0c4.18,0,6.35-1.68,7.48-5.95c2.56,2.03,5.35,2.26,8.29,2.24
	c10-0.08,20-0.1,30,0.01c2.93,0.03,5.1-1.06,6.41-3.5c1.04-1.93,1.59-4.12,2.36-6.19c0.15-0.41,0.17-0.97,0.45-1.23
	c2.92-2.63,3.38-6.12,3.54-9.74c0.03-0.58,0.19-1.26,0.53-1.72c1.82-2.5,2.07-5.26,1.63-8.21c-0.12-0.79-0.07-1.69,0.22-2.43
	C115.67,66.15,114.91,62.1,111.52,59.3z M82.79,100c-5.34,0-10.69-0.03-16.03,0.01C72.1,99.97,77.44,99.99,82.79,100
	c2.61,0,5.23-0.02,7.84-0.02C88.02,99.98,85.4,100,82.79,100z"/>
</svg>
