<?xml version="1.0" encoding="utf-8"?>
<!-- Generator: Adobe Illustrator 23.0.1, SVG Export Plug-In . SVG Version: 6.00 Build 0)  -->
<svg version="1.1" id="Layer_1" xmlns="http://www.w3.org/2000/svg" xmlns:xlink="http://www.w3.org/1999/xlink" x="0px" y="0px"
	 viewBox="0 0 204.58 218.01" style="enable-background:new 0 0 204.58 218.01;" xml:space="preserve">
<style type="text/css">
	.st0{fill:#B3268D;}
</style>
<path class="st0" d="M80.65,170.83c-2.33,8.77-6.77,12.2-15.36,12.21c-12.74,0.01-25.48,0.03-38.22,0
	c-9.25-0.02-14.7-5.51-14.7-14.76c-0.01-25.48-0.01-50.96,0-76.45c0-9.21,5.49-14.71,14.76-14.74c12.27-0.04,24.54-0.01,36.81-0.01
	c10.6,0,14.82,3.42,16.87,14.18c1.13-0.97,2.08-1.7,2.94-2.53c6.82-6.64,10.56-15.14,14.73-23.5c4.64-9.29,4.75-18.99,4.56-28.92
	c-0.16-8.27,6.29-13.33,14.46-11.49c7.68,1.74,12.83,6.77,16.44,13.45c5.89,10.91,5.98,22.57,4.06,34.44
	c-0.13,0.81-0.32,1.62-0.44,2.43c-0.07,0.46-0.07,0.94-0.14,1.94c1.32,0,2.56,0,3.81,0c8.38,0,16.75,0.07,25.13-0.02
	c7.31-0.08,13.61,2.55,19.12,7.1c6.95,5.75,8.52,14.06,4.88,23.51c-0.58,1.51-0.68,3.37-0.44,4.98c0.9,6.05,0.4,11.72-3.34,16.85
	c-0.69,0.95-1.03,2.33-1.09,3.52c-0.34,7.44-1.28,14.59-7.27,19.99c-0.59,0.53-0.62,1.68-0.93,2.53c-1.57,4.26-2.71,8.75-4.84,12.72
	c-2.69,5-7.14,7.25-13.16,7.19c-20.52-0.23-41.05-0.19-61.58-0.02C91.63,175.47,85.91,174.99,80.65,170.83z M126.46,167.7
	c10.73,0,21.47-0.15,32.2,0.08c3.84,0.08,6.33-1.34,8.02-4.53c0.87-1.65,1.97-3.36,2.21-5.15c0.68-5.13,1.34-10.09,6.17-13.35
	c0.9-0.61,1.38-2.24,1.55-3.47c0.5-3.48,0.68-7,1.12-10.49c0.18-1.45,0.27-3.28,1.16-4.22c4.52-4.77,4.56-9.93,2.35-15.71
	c-0.5-1.32-0.1-3.65,0.81-4.74c3.17-3.79,3.3-11.55-0.4-15.06c-4.13-3.91-8.96-6.4-14.87-6.37c-11.21,0.05-22.41,0.05-33.62-0.01
	c-3.94-0.02-5.28-1.89-4.46-5.68c0.79-3.68,1.74-7.34,2.2-11.06c1.06-8.65,0.79-17.21-3.2-25.22c-2.32-4.66-5.54-8.53-10.73-10.17
	c-4.24-1.34-6.38,0.17-6.26,4.49c0.28,10.16-0.1,20.02-4.54,29.63C100.24,79.57,94,91.96,81.84,100.25c-0.75,0.51-1.16,2-1.16,3.04
	c-0.07,18.4-0.07,36.8-0.01,55.2c0,1.1,0.21,2.58,0.92,3.24c3.36,3.16,6.89,6.03,11.96,5.99
	C104.52,167.64,115.49,167.7,126.46,167.7z M20.04,130.07c0,12.73-0.01,25.47,0.01,38.2c0.01,5.05,2.01,7.03,7.07,7.04
	c12.73,0.02,25.47,0.01,38.2,0c5.64,0,7.35-1.71,7.35-7.37c0.01-25.23,0.01-50.47,0-75.7c0-5.59-1.82-7.49-7.32-7.51
	c-12.62-0.03-25.23-0.04-37.85,0c-5.49,0.02-7.45,2.03-7.46,7.48C20.03,104.84,20.04,117.45,20.04,130.07z"/>
<path class="st0" d="M126.46,167.7c-10.97,0-21.94-0.06-32.91,0.03c-5.07,0.04-8.6-2.83-11.96-5.99c-0.71-0.67-0.92-2.14-0.92-3.24
	c-0.05-18.4-0.06-36.8,0.01-55.2c0-1.04,0.41-2.53,1.16-3.04c12.16-8.29,18.4-20.69,24.34-33.57c4.43-9.61,4.82-19.48,4.54-29.63
	c-0.12-4.32,2.01-5.83,6.26-4.49c5.19,1.64,8.41,5.51,10.73,10.17c3.99,8.01,4.26,16.57,3.2,25.22c-0.46,3.72-1.41,7.39-2.2,11.06
	c-0.82,3.8,0.53,5.66,4.46,5.68c11.21,0.06,22.41,0.06,33.62,0.01c5.91-0.03,10.74,2.46,14.87,6.37c3.7,3.51,3.57,11.27,0.4,15.06
	c-0.91,1.09-1.31,3.41-0.81,4.74c2.21,5.78,2.16,10.94-2.35,15.71c-0.89,0.94-0.98,2.77-1.16,4.22c-0.44,3.49-0.62,7.01-1.12,10.49
	c-0.18,1.23-0.65,2.86-1.55,3.47c-4.83,3.26-5.49,8.21-6.17,13.35c-0.24,1.79-1.33,3.49-2.21,5.15c-1.68,3.19-4.18,4.62-8.02,4.53
	C147.93,167.54,137.19,167.7,126.46,167.7z"/>
<path class="st0" d="M20.04,130.07c0-12.62-0.01-25.23,0-37.85c0.01-5.46,1.97-7.47,7.46-7.48c12.62-0.04,25.23-0.04,37.85,0
	c5.49,0.01,7.31,1.92,7.32,7.51c0.01,25.23,0.01,50.47,0,75.7c0,5.67-1.71,7.37-7.35,7.37c-12.73,0.01-25.47,0.01-38.2,0
	c-5.06-0.01-7.06-1.99-7.07-7.04C20.03,155.54,20.04,142.8,20.04,130.07z"/>
</svg>
