<?xml version="1.0" encoding="utf-8"?>
<!-- Generator: Adobe Illustrator 23.0.1, SVG Export Plug-In . SVG Version: 6.00 Build 0)  -->
<svg version="1.1" id="Layer_1" xmlns="http://www.w3.org/2000/svg" xmlns:xlink="http://www.w3.org/1999/xlink" x="0px" y="0px"
	 viewBox="0 0 323.97 259.18" style="enable-background:new 0 0 323.97 259.18;" xml:space="preserve">
<style type="text/css">
	.st0{stroke:#ED1C24;stroke-miterlimit:10;}
</style>
<polygon class="st0" points="35.4,18.63 35.4,201.99 83.2,201.99 83.2,148.66 50.24,158.67 "/>
<path class="st0" d="M130.87,53.25l-20.14,69.5l5.75,105.58l53.1-55.75L130.87,53.25z M120.22,135.89l11.38-38.97l21.87,66.9
	l-30,31.26L120.22,135.89z"/>
<polygon class="st0" points="128.58,40.11 182.56,40.11 182.56,54.25 162.26,54.25 168.94,189.48 149.44,65.59 135.06,54.25 
	116.36,65.59 "/>
<polygon class="st0" points="153.47,76.04 214.02,68.19 183.38,177.1 238.1,190.99 164.79,186.52 201.97,88.48 "/>
<polygon class="st0" points="214.82,190.19 214.82,24.28 261.38,190.19 232.8,115.15 224.54,115.15 "/>
<polygon class="st0" points="255.15,24.28 244.63,211.3 259.46,129.09 305.44,246.61 271.48,119.26 311.88,38.42 267.9,79.77 "/>
<path class="st0" d="M93.48,54.05L64.71,119.7l43.15,46.87l23.01-43.81L93.48,54.05z M103.46,142l-24.3-26.4l16.2-36.98l21.06,38.7
	L103.46,142z"/>
</svg>
