<svg id="Layer_1" data-name="Layer 1" xmlns="http://www.w3.org/2000/svg" viewBox="0 0 286 286"><defs><style>.cls-1,.cls-2{fill:#f4eee8;}.cls-1{opacity:0;}</style></defs><title>pinterest</title><rect class="cls-1" width="286" height="286"/><path class="cls-2" d="M149.9,85.35c2.43.41,4.89.66,7.28,1.24,13.11,3.19,22.85,10.57,28.29,23.15A32,32,0,0,1,188,121.55a57.08,57.08,0,0,1-6,28.32c-3.9,7.57-9.33,13.6-17.44,16.81a28.9,28.9,0,0,1-14.77,2c-5.47-.76-10.27-2.9-13.44-8-.77,3.1-1.49,6-2.23,9-.64,2.55-1.3,5.1-2,7.64-2.19,8.57-6.73,15.91-12,22.84-.27.36-.95.74-1.27.63s-.65-.79-.71-1.25c-1.3-9.75-1.33-19.47,1-29.1,2.46-10.18,5-20.35,7.44-30.54a4.07,4.07,0,0,0-.15-2.07c-2.47-7.56-3-14.93,2-21.8,2.62-3.6,6.12-5.4,10.61-4.76,4,.58,6.65,3.58,7.23,7.74a23,23,0,0,1-1.14,9.69c-1.3,4.51-2.79,9-4.08,13.47a15.31,15.31,0,0,0-.53,7.33c1,4.89,5.72,8.26,11,8a15.35,15.35,0,0,0,12.13-6.64,42.07,42.07,0,0,0,7.37-18.93,48.34,48.34,0,0,0,.57-14.15c-1.44-10.49-7.54-17.15-17.55-19.74-12.54-3.25-24.13-1.12-33.51,8.45-7.21,7.36-9.68,16.37-8.09,26.48.47,3,2,5.62,3.52,8.21a7.5,7.5,0,0,1,1.36,3.53,12.59,12.59,0,0,1-2,6.78,1.88,1.88,0,0,1-2.21.84,13.53,13.53,0,0,1-6.28-3.51c-3.41-3.2-5.11-7.33-6.31-11.71-4.44-16.29,1.38-32.1,15.52-42.26a50.24,50.24,0,0,1,25.48-9.24,7.85,7.85,0,0,0,1-.22Z" transform="translate(-0.56 -0.07)"/></svg>