<?xml version="1.0" encoding="utf-8"?>
<!-- Generator: Adobe Illustrator 23.0.1, SVG Export Plug-In . SVG Version: 6.00 Build 0)  -->
<svg version="1.1" id="Layer_1" xmlns="http://www.w3.org/2000/svg" xmlns:xlink="http://www.w3.org/1999/xlink" x="0px" y="0px"
	 viewBox="0 0 204.58 218.01" style="enable-background:new 0 0 204.58 218.01;" xml:space="preserve">
<style type="text/css">
	.st0{fill:#B3268D;}
	.st1{fill:none;stroke:#B3268D;stroke-width:3;stroke-miterlimit:10;}
</style>
<path class="st0" d="M143.56,145.06c-27.45,0-54.9,0-82.35,0c0.82-0.55,1.1-1.36,1.33-2.3c1.4-5.79,3.9-11.1,7.72-15.66
	c10.67-12.76,24.34-18.08,40.61-14.56c16.2,3.51,26.43,13.97,31.12,29.85C142.28,143.41,142.6,144.42,143.56,145.06z"/>
<path class="st0" d="M143.56,145.06c-0.96-0.64-1.27-1.65-1.58-2.68c-4.68-15.88-14.92-26.34-31.12-29.85
	c-16.27-3.52-29.94,1.8-40.61,14.56c-3.82,4.57-6.32,9.87-7.72,15.66c-0.23,0.94-0.5,1.75-1.33,2.3c-0.41,0-0.82,0-1.22,0
	c-1.28-0.78-1.65-1.54-1.29-2.87c4.43-16.69,14.94-27.56,31.37-32.76c0.19-0.06,0.39-0.11,0.58-0.18c0.07-0.02,0.14-0.07,0.22-0.11
	c-13.33-6.06-18.99-20.44-15.6-32.95c3.36-12.39,14.76-20.93,27.81-20.68c12.1,0.24,23.17,8.88,26.29,20.83
	c3.34,12.78-2.59,26.82-15.72,32.83c0.76,0.23,1.45,0.4,2.12,0.63c15.6,5.39,25.66,16.01,30.04,31.95c0.14,0.5,0.45,1.08,0.31,1.49
	c-0.22,0.66-0.76,1.22-1.16,1.82C144.49,145.06,144.02,145.06,143.56,145.06z M102.25,107.66c12.45,0.36,24.28-9.97,24.26-24.17
	c-0.02-13.45-10.8-24.2-24.21-24.2c-13.42,0-24.2,10.75-24.22,24.2C78.06,97.76,89.91,107.98,102.25,107.66z"/>
<path class="st0" d="M102.25,107.66c-12.33,0.31-24.19-9.91-24.17-24.18c0.02-13.45,10.8-24.2,24.22-24.2
	c13.41,0,24.19,10.75,24.21,24.2C126.53,97.7,114.7,108.02,102.25,107.66z"/>
<path class="st1" d="M170.87,178.98H33.71c-9.15,0-16.63-7.48-16.63-16.63V46.94c0-9.15,7.48-16.63,16.63-16.63h137.16
	c9.15,0,16.63,7.48,16.63,16.63v115.41C187.5,171.5,180.02,178.98,170.87,178.98z"/>
</svg>
