<?xml version="1.0" encoding="utf-8"?>
<!-- Generator: Adobe Illustrator 23.0.1, SVG Export Plug-In . SVG Version: 6.00 Build 0)  -->
<svg version="1.1" id="Layer_1" xmlns="http://www.w3.org/2000/svg" xmlns:xlink="http://www.w3.org/1999/xlink" x="0px" y="0px"
	 viewBox="0 0 142.03 137.68" style="enable-background:new 0 0 142.03 137.68;" xml:space="preserve">
<style type="text/css">
	.st0{fill:#FFFFFF;}
</style>
<path class="st0" d="M104.92,85.29c6.76,6.75,13.49,13.43,20.17,20.15c3.1,3.12,3.84,6.97,2.16,10.31
	c-2.71,5.38-9.35,6.46-13.94,2.13c-3.81-3.6-7.45-7.39-11.16-11.1c-2.67-2.67-5.39-5.29-7.98-8.03c-1.12-1.18-1.95-1.41-3.49-0.52
	c-17.98,10.39-40.04,7.4-53.95-7.75c-11.91-12.98-15.12-28.36-9-44.82c6.11-16.44,18.5-25.9,36.01-28.19
	c21.83-2.86,44.13,12.45,47.94,36.68c1.58,10.03-0.24,19.58-5.39,28.42c-0.37,0.63-0.74,1.27-1.1,1.91
	C105.09,84.63,105.07,84.82,104.92,85.29z M35.32,60.78c0.04,18.27,14.87,33.08,33.18,33.11c18.25,0.04,33.21-14.81,33.29-33.04
	c0.08-18.26-15.08-33.41-33.35-33.33C50.22,27.59,35.28,42.6,35.32,60.78z"/>
</svg>
