<svg id="Layer_1" data-name="Layer 1" xmlns="http://www.w3.org/2000/svg" viewBox="0 0 286 286"><defs><style>.cls-1,.cls-2{fill:#f4eee8;}.cls-1{opacity:0;}</style></defs><title>tripadvisor</title><rect class="cls-1" width="286" height="286"/><path class="cls-2" d="M218,112.62c-.57.7-1.18,1.37-1.7,2.11a35.5,35.5,0,0,0-5.61,11.81,2,2,0,0,0,.31,1.78,35.82,35.82,0,0,1,6.3,15.93,37.6,37.6,0,0,1-28.84,42,36.25,36.25,0,0,1-11,.82A37.23,37.23,0,0,1,156,178.39a36.62,36.62,0,0,1-5-5c-3,3.73-5.64,7.65-8.37,11.58a106,106,0,0,0-8.38-11.7c-.79.86-1.51,1.7-2.29,2.49a37.35,37.35,0,0,1-19.57,10.74,37.51,37.51,0,0,1-38-58.43,1.16,1.16,0,0,0,.21-1A33.48,33.48,0,0,0,69.82,116c-.76-1.19-1.63-2.3-2.49-3.51h.53q11.4,0,22.8,0a1.28,1.28,0,0,0,.7-.18,76.74,76.74,0,0,1,19-8.91,101,101,0,0,1,15.08-3.55,108.86,108.86,0,0,1,20.64-1.28,96.86,96.86,0,0,1,31.4,6,75.67,75.67,0,0,1,15,7.6,1.93,1.93,0,0,0,1,.29q12.21,0,24.41,0H218Zm-7.65,37a30.19,30.19,0,1,0-30.16,30.18A30.3,30.3,0,0,0,210.35,149.64Zm-75.08,0a30.19,30.19,0,1,0-30.2,30.14A30.32,30.32,0,0,0,135.27,149.67Zm7.35-2a37.76,37.76,0,0,1,36.23-35.55c-9-4-23.75-8.2-42.83-7A91.06,91.06,0,0,0,105.48,112a37.75,37.75,0,0,1,37.14,35.6Z" transform="translate(0.34 0.13)"/><path class="cls-2" d="M180.15,167.6a18.18,18.18,0,1,1,18.25-17.49A18.14,18.14,0,0,1,180.15,167.6Zm0-5.6a12.58,12.58,0,0,0,12.68-12.47,12.68,12.68,0,0,0-25.35-.1A12.57,12.57,0,0,0,180.16,162Z" transform="translate(0.34 0.13)"/><path class="cls-2" d="M122.9,149.5a18.27,18.27,0,1,1-18.32-18.26A18.32,18.32,0,0,1,122.9,149.5Zm-18.26,12.66A12.66,12.66,0,1,0,92,149.58,12.71,12.71,0,0,0,104.64,162.16Z" transform="translate(0.34 0.13)"/><path class="cls-2" d="M179.14,155.52a6,6,0,0,1-6-6,6.09,6.09,0,0,1,6-6.19,6.19,6.19,0,0,1,6.2,6.13A6.06,6.06,0,0,1,179.14,155.52Z" transform="translate(0.34 0.13)"/><path class="cls-2" d="M97.58,149.5a6.18,6.18,0,0,1,6.15-6.18,6.18,6.18,0,0,1,0,12.36A6.21,6.21,0,0,1,97.58,149.5Z" transform="translate(0.34 0.13)"/></svg>