<svg id="Layer_1" data-name="Layer 1" xmlns="http://www.w3.org/2000/svg" viewBox="0 0 286 286"><defs><style>.cls-1,.cls-2{fill:#f4eee8;}.cls-1{opacity:0;}</style></defs><title>twitter</title><rect class="cls-1" width="286" height="286"/><path class="cls-2" d="M115.85,174.6a28.16,28.16,0,0,1-26-19.49,27.86,27.86,0,0,0,12.39-.48,28.22,28.22,0,0,1-18.48-13.49,27.16,27.16,0,0,1-3.73-14.33,27.93,27.93,0,0,0,12.59,3.47c-7-5-11.16-11.59-12.19-20A27.57,27.57,0,0,1,84,92.93c15.15,17.86,34.32,27.68,57.74,29.29-.16-.92-.32-1.72-.42-2.53a28,28,0,0,1,15.37-29,27.28,27.28,0,0,1,13.17-2.86,27.74,27.74,0,0,1,17.54,6.81c.66.56,1.25,1.2,1.89,1.78a.67.67,0,0,0,.48.16,55.52,55.52,0,0,0,16.89-6.36l.46-.26a.52.52,0,0,1,.13,0,27.41,27.41,0,0,1-4.69,8.73,29.64,29.64,0,0,1-7.42,6.61,52.14,52.14,0,0,0,8.06-1.55,56.24,56.24,0,0,0,7.72-2.74l.07.09c-.76,1-1.49,2.08-2.28,3.1a55.37,55.37,0,0,1-11.32,11,.64.64,0,0,0-.31.61,72.5,72.5,0,0,1-.17,9.32,80.48,80.48,0,0,1-4.52,20.79,82.79,82.79,0,0,1-11.84,22,76.42,76.42,0,0,1-22.65,20.28,75.25,75.25,0,0,1-21.79,8.5,79.32,79.32,0,0,1-10.5,1.64,86.25,86.25,0,0,1-13,.22,79.07,79.07,0,0,1-37.79-12.21l-.22-.17C89.94,187.68,103.69,183.93,115.85,174.6Z" transform="translate(0.17 -0.24)"/></svg>