<?xml version="1.0" encoding="utf-8"?>
<!-- Generator: Adobe Illustrator 23.0.1, SVG Export Plug-In . SVG Version: 6.00 Build 0)  -->
<svg version="1.1" id="Layer_1" xmlns="http://www.w3.org/2000/svg" xmlns:xlink="http://www.w3.org/1999/xlink" x="0px" y="0px"
	 viewBox="0 0 142.03 137.68" style="enable-background:new 0 0 142.03 137.68;" xml:space="preserve">
<style type="text/css">
	.st0{fill:#FFFFFF;}
</style>
<path class="st0" d="M116.22,107.94C111.84,92,101.78,81.39,86.18,75.99c-0.67-0.23-1.35-0.4-2.12-0.63
	c13.14-6.01,19.06-20.04,15.72-32.83C96.66,30.58,85.59,21.94,73.49,21.7C60.44,21.45,49.04,30,45.68,42.39
	c-3.39,12.51,2.27,26.89,15.6,32.95c-0.08,0.04-0.15,0.09-0.22,0.11c-0.19,0.06-0.39,0.12-0.58,0.18
	c-16.43,5.2-26.94,16.07-31.37,32.76c-0.35,1.33,0.01,2.09,1.29,2.87c0.41,0,0.82,0,1.22,0c27.45,0,54.9,0,82.35,0
	c0.47,0,0.93,0,1.4,0c0.4-0.6,0.94-1.16,1.16-1.82C116.67,109.02,116.36,108.44,116.22,107.94z"/>
</svg>
