<svg id="Layer_1" data-name="Layer 1" xmlns="http://www.w3.org/2000/svg" viewBox="0 0 286 286"><defs><style>.cls-1,.cls-2{fill:#f4eee8;}.cls-1{opacity:0;}</style></defs><title>youtube</title><rect class="cls-1" width="286" height="286"/><path class="cls-2" d="M125.55,200.76c-2.74-.11-5.49-.19-8.24-.33-5.18-.26-10.36-.48-15.53-.85-7.11-.51-11.85-4-13.28-9.52a66.65,66.65,0,0,1-1.73-17c0-4.48,0-9,.24-13.43.22-3.94.56-7.9,2.1-11.68,1.66-4.06,5.14-6.78,10.49-7.54,3.91-.55,7.92-.72,11.9-.92,17-.83,34.1-.6,51.16-.39,7.26.09,14.53.57,21.77,1.09,5.51.39,9.58,2.81,11.52,6.89a26.07,26.07,0,0,1,2,7.78c1.18,8.53.91,17.1.47,25.66a33,33,0,0,1-2.09,11.34c-1.64,3.88-4.94,6.61-10.07,7.35-4.35.64-8.83.81-13.26,1-4.08.23-8.18.29-12.27.42a7.53,7.53,0,0,0-.83.11Zm26.22-15.32c.47.35.72.58,1,.76a30.6,30.6,0,0,0,3.6,2,5.88,5.88,0,0,0,8.31-5.91q.06-8.9,0-17.79a8.54,8.54,0,0,0-.54-2.81c-1-2.71-3.26-3.82-6.74-3.26a11,11,0,0,0-3.13,1.14,20.48,20.48,0,0,0-2.51,1.74v-1c0-3.67,0-7.33,0-11,0-.27-.28-.76-.45-.77-2.06-.05-4.13,0-6.19,0v39.72c2,0,4,0,5.92,0,.63,0,.77-.24.75-.68C151.75,186.89,151.77,186.26,151.77,185.44ZM183.38,178c0,1.09.05,2.12,0,3.15a2.65,2.65,0,0,1-2.33,2.49c-2.12.37-3.81-.61-4-2.45s-.12-3.85-.25-5.78c-.06-.84.34-1,1.32-1,3.75,0,7.49,0,11.23,0,.47,0,1,.11,1-.53-.12-3,0-5.94-.39-8.87-.58-4.1-4-6.47-9.22-6.71-5.45-.25-9.61,2.32-10.29,6.61-.84,5.37-.53,10.77-.18,16.16a7.21,7.21,0,0,0,2.31,4.87,11,11,0,0,0,7.88,2.69,10.41,10.41,0,0,0,7.85-2.9c2.25-2.32,2-5,2-7.73Zm-63.71-19.35c0,.3,0,.49,0,.68q0,11.17,0,22.34a21,21,0,0,0,.17,2.85c.22,1.73.73,3.37,3.19,3.94a7.93,7.93,0,0,0,5.8-1c1.21-.68,2.3-1.48,3.6-2.33v3h6.66V158.62h-6.72v1c0,6.66-.07,13.32.06,20a3.76,3.76,0,0,1-2.16,3.39,3.25,3.25,0,0,1-2.85.52c-1-.36-.91-1.18-.95-1.9v-.34q0-10.83,0-21.66v-1Zm-16.62,29.57c2.41,0,4.66,0,6.91,0a.82.82,0,0,0,.57-.44,2.54,2.54,0,0,0,0-.83q0-15.94,0-31.88c0-.72.19-1,1.16-1,2,.06,4,0,6,0,.74,0,1-.19,1-.77,0-1.32-.06-2.63,0-3.95,0-.75-.29-.94-1.21-.94-7.13,0-14.26,0-21.39,0-.34,0-.67,0-1,.06v5.57c2.28,0,4.46,0,6.64,0,1,0,1.29.23,1.29,1,0,10.63,0,21.25,0,31.88Z" transform="translate(0.23 -0.11)"/><path class="cls-2" d="M127.88,85.46c-1,3.2-2,6.41-3,9.6-1.82,5.75-3.64,11.51-5.53,17.25a12.72,12.72,0,0,0-.58,4.23c0,5.18,0,10.36,0,15.54v1.22h-7.5v-1.15c0-4.85-.13-9.7,0-14.53a28.43,28.43,0,0,0-1.85-10.31c-2.5-7.3-5.11-14.57-7.68-21.85h8.05a2.74,2.74,0,0,0,0,.5q2.24,7.86,4.48,15.73c.2.71.43,1.41.65,2.12a3.8,3.8,0,0,0,.65-1.41c1.07-3.9,2.15-7.8,3.21-11.7.47-1.74.91-3.49,1.36-5.24Z" transform="translate(0.23 -0.11)"/><path class="cls-2" d="M166.74,129.69c-1.34,1-2.39,2-3.55,2.74a7.4,7.4,0,0,1-5.07,1.37,3.91,3.91,0,0,1-3.76-3.35,35.09,35.09,0,0,1-.4-4.58c0-9.09,0-18.18,0-27.27,0-.26,0-.52.05-.85h6.7c0,.46,0,.88,0,1.31q0,13.23,0,26.47a4.81,4.81,0,0,0,.12,1.19A1.57,1.57,0,0,0,163,127.9a5,5,0,0,0,3.73-4.41V97.76h6.67v35.59c-2.07,0-4.14,0-6.21,0-.16,0-.43-.46-.44-.72C166.7,131.71,166.74,130.81,166.74,129.69Z" transform="translate(0.23 -0.11)"/><path class="cls-2" d="M127.91,115.4c.19-3.37.19-6.88.62-10.35.61-4.92,4.82-7.94,10.08-7.76s8.53,3.39,9.2,7.81a28.13,28.13,0,0,1,.41,4c0,4.71.05,9.42-.05,14.13a12.45,12.45,0,0,1-1.42,6c-1.89,3.33-5,4.72-8.82,4.62-5.29-.14-8.81-3-9.44-8C128.06,122.43,128.09,119,127.91,115.4Zm13.36.18h.16c0-2.41.06-4.82,0-7.22a14.62,14.62,0,0,0-.57-3.53,2.93,2.93,0,0,0-5.3-.12,13.41,13.41,0,0,0-.65,3.81c-.07,4.65,0,9.29,0,13.93a18.85,18.85,0,0,0,.2,2.6,3.12,3.12,0,0,0,2.91,3,3,3,0,0,0,3.25-3.11C141.36,121.79,141.27,118.68,141.27,115.58Z" transform="translate(0.23 -0.11)"/><path class="cls-2" d="M151.77,173.35v-8.13c0-1.07.53-1.53,2.22-2,1.32-.35,2.44-.22,3,.59a4.5,4.5,0,0,1,.91,2.26c.11,3.77.09,7.55.11,11.32,0,1.12,0,2.23-.09,3.35a4.23,4.23,0,0,1-.21,1.16c-.45,1.4-1.79,2.08-3.51,1.65s-2.56-.81-2.48-2.42C151.87,178.55,151.77,176,151.77,173.35Z" transform="translate(0.23 -0.11)"/><path class="cls-2" d="M183.66,169.87c-2.23,0-4.27,0-6.3,0-.18,0-.5-.33-.49-.49a28.07,28.07,0,0,1,.3-4.1,2.88,2.88,0,0,1,3.28-2.19,2.92,2.92,0,0,1,3,2.54C183.53,167,183.58,168.38,183.66,169.87Z" transform="translate(0.23 -0.11)"/></svg>